# xmcd
# Copyright (C) 1995-1998 Ti Kan
#
# Track frame offsets:
#       182
#       15140
#       27112
#       44312
#       57540
#       79085
#       100882
#       118147
#       135575
#       149737
#       166880
#       186322
#
# Disc length: 2669 seconds
#
# Revision: 2
# Processed by: cddbd v1.4b42PL1 Copyright (c) Steve Scherf et al.
# Submitted via: CD-Transfer v1.0
#
DISCID=a00a6b0c
DTITLE=Daniela Mühleis and Band - Better Life
DYEAR=1992
DGENRE=
TTITLE0=Animal Factory
TTITLE1=You Can't Take The Texas Out Of Me
TTITLE2=I Want  To Grow Old With You
TTITLE3=Better Life
TTITLE4=Silent Seas
TTITLE5=I'm At Home On The Range
TTITLE6=Driving Me Crazy
TTITLE7=That's How You Know When Love's Right
TTITLE8=Ease On Up The Highway
TTITLE9=Somewhere Between
TTITLE10=Better Be Some Tears
TTITLE11=Point Of Living
EXTD=
EXTT0=
EXTT1=
EXTT2=
EXTT3=
EXTT4=
EXTT5=
EXTT6=
EXTT7=
EXTT8=
EXTT9=
EXTT10=
EXTT11=
PLAYORDER=
